<?xml version="1.0" standalone="no"?>
<!DOCTYPE svg PUBLIC "-//W3C//DTD SVG 20010904//EN"
 "http://www.w3.org/TR/2001/REC-SVG-20010904/DTD/svg10.dtd">
<svg version="1.0" xmlns="http://www.w3.org/2000/svg"
 width="300.000000pt" height="384.000000pt" viewBox="0 0 300.000000 384.000000"
 preserveAspectRatio="xMidYMid meet">

<g transform="translate(0.000000,384.000000) scale(0.100000,-0.100000)"
fill="#FFFFFF" stroke="none">
<path d="M1190 3834 c-333 -30 -650 -113 -895 -234 -132 -65 -219 -128 -265
-192 -30 -41 -30 -41 -29 -177 1 -126 14 -294 18 -226 2 39 28 215 42 283 14
71 54 114 143 157 204 98 635 200 991 236 357 35 942 -54 1319 -201 136 -53
190 -89 210 -141 17 -41 54 -261 57 -329 4 -91 18 65 18 203 1 168 -2 180 -73
245 -167 154 -531 293 -926 353 -131 19 -494 33 -610 23z"/>
<path d="M1094 3491 c-23 -11 -62 -18 -90 -18 -28 0 -63 -7 -81 -16 -18 -9
-45 -17 -60 -17 -15 0 -44 -10 -63 -21 l-35 -22 40 -14 c22 -7 45 -20 51 -28
8 -10 21 -13 40 -9 21 4 37 0 57 -16 50 -40 26 -82 -59 -104 -77 -19 -68 -36
20 -36 65 0 79 3 103 24 25 22 28 31 28 84 -1 75 -23 106 -67 97 -21 -5 -28
-3 -28 9 0 18 32 21 61 6 29 -16 48 -61 54 -131 6 -54 2 -79 -24 -163 -51
-164 -40 -212 48 -210 94 3 183 87 221 209 38 122 108 208 210 259 89 44 184
60 330 54 106 -4 111 -3 65 8 -72 18 -269 17 -338 -1 -147 -38 -225 -106 -296
-258 -27 -57 -63 -120 -81 -141 -34 -38 -87 -72 -98 -62 -3 3 -1 6 5 6 15 0
73 55 73 69 0 6 -7 11 -16 11 -8 0 -26 8 -38 18 -24 17 -24 17 -5 44 16 22 17
31 8 52 -7 14 -16 23 -21 19 -6 -3 -2 6 7 21 10 14 22 26 28 26 7 0 7 4 -1 12
-7 7 -12 23 -12 36 0 16 -4 21 -12 16 -7 -5 -1 8 14 28 l27 35 -24 23 c-14 13
-25 28 -25 34 0 6 5 4 10 -4 8 -12 10 -11 10 7 0 11 14 33 30 46 17 14 30 28
30 31 0 13 -57 5 -96 -13z"/>
<path d="M676 3429 c-19 -15 -26 -30 -26 -56 0 -109 118 -157 238 -97 29 14
52 32 52 40 0 20 -18 17 -74 -11 -61 -31 -123 -33 -159 -5 -27 22 -41 61 -32
92 7 19 7 19 20 1 7 -10 15 -16 17 -13 2 3 11 20 20 38 17 32 17 32 -6 32 -13
0 -35 -9 -50 -21z"/>
<path d="M1628 3394 c-63 -15 -129 -45 -168 -77 -19 -15 -20 -18 -6 -13 92 33
173 30 231 -10 44 -30 45 -30 45 0 0 60 68 95 192 97 47 1 57 3 38 9 -42 13
-270 10 -332 -6z"/>
<path d="M1948 3289 c-67 -35 -87 -113 -46 -179 l22 -35 7 33 c4 18 16 43 28
56 28 30 27 36 -9 36 -37 0 -38 9 -2 44 95 90 247 -15 212 -146 -32 -117 -191
-178 -267 -102 -21 21 -25 32 -20 66 5 36 4 38 -11 25 -10 -8 -27 -17 -39 -20
-19 -4 -23 0 -29 30 -7 35 -7 36 -23 15 -9 -12 -27 -23 -41 -24 -20 -2 -26 3
-35 28 l-10 32 -28 -24 c-29 -25 -85 -44 -130 -44 -23 0 -29 -5 -34 -31 -4
-21 -9 -27 -16 -20 -15 15 -43 14 -78 -4 -22 -12 -32 -27 -41 -60 -11 -40 -15
-45 -40 -45 -22 0 -33 -8 -50 -36 -17 -29 -25 -34 -42 -29 -12 4 -47 9 -79 12
l-58 6 3 -39 3 -39 58 -3 c48 -3 70 2 123 27 35 16 83 43 106 59 73 50 146 82
185 82 34 0 44 -7 93 -62 127 -142 131 -145 195 -157 96 -19 126 -39 158 -101
33 -65 33 -96 0 -92 -28 4 -59 -13 -74 -39 -10 -19 -8 -20 11 -14 19 6 21 5
11 -13 -6 -12 -11 -32 -11 -46 0 -25 1 -25 35 12 l35 37 -6 -32 c-4 -18 -3
-40 0 -49 5 -14 11 -10 26 19 11 20 20 50 20 66 0 36 22 54 97 77 38 12 51 20
43 28 -7 7 -24 7 -55 -2 -25 -7 -50 -12 -55 -12 -11 0 -23 43 -45 154 -13 71
-53 155 -74 156 -3 1 -19 12 -36 26 -26 23 -27 24 -5 13 14 -6 37 -20 52 -30
36 -26 56 -24 111 11 86 54 137 159 122 249 -9 53 -58 119 -100 137 -48 20
-123 17 -167 -7z"/>
<path d="M1478 3290 c-30 -9 -88 -47 -88 -58 0 -4 28 -7 63 -7 48 0 69 -5 94
-22 36 -27 43 -28 43 -10 0 20 43 57 76 66 l29 8 -39 17 c-40 17 -131 20 -178
6z"/>
<path d="M654 3198 c3 -7 7 -28 10 -47 l6 -35 -23 22 c-22 20 -47 29 -47 17 0
-14 30 -62 49 -77 26 -22 28 -83 5 -116 -9 -13 -13 -26 -10 -29 3 -3 1 -14 -5
-24 -6 -12 -6 -19 0 -19 17 0 39 29 46 59 8 37 39 49 66 25 10 -9 33 -42 51
-73 l31 -56 13 50 c17 64 18 60 -8 72 -13 6 -47 30 -75 54 -46 37 -51 45 -39
58 20 24 27 50 20 77 -7 28 -24 32 -24 7 -1 -16 -2 -16 -15 2 -24 34 -35 45
-45 45 -5 0 -8 -6 -6 -12z"/>
<path d="M1376 3189 c-31 -25 -36 -53 -6 -44 25 8 87 -21 102 -48 10 -20 11
-20 25 7 8 15 26 31 40 37 22 8 23 11 12 26 -37 44 -130 56 -173 22z"/>
<path d="M1015 3178 c-28 -13 -50 -48 -36 -57 7 -5 2 -16 -15 -32 -14 -13 -35
-41 -45 -61 -19 -38 -15 -49 10 -25 7 6 -4 -12 -23 -42 -20 -29 -36 -65 -36
-79 0 -25 0 -25 21 -6 l21 19 -21 -35 c-22 -37 -27 -75 -12 -85 6 -3 15 5 22
17 6 13 29 46 50 75 35 47 38 56 33 95 -5 34 1 64 25 133 17 49 30 89 28 91
-1 1 -11 -3 -22 -8z"/>
<path d="M1351 3113 c-12 -8 -26 -23 -32 -34 -9 -17 -7 -25 12 -45 l23 -24 21
20 c11 11 35 23 53 26 38 8 39 14 10 41 -31 28 -63 34 -87 16z"/>
<path d="M1281 2994 c-23 -29 -25 -42 -12 -63 6 -9 11 -10 15 -2 4 6 16 11 27
11 14 0 19 7 19 29 0 16 -6 34 -14 40 -11 9 -18 6 -35 -15z"/>
<path d="M1196 2919 c-40 -30 -38 -36 19 -41 24 -2 31 1 33 19 7 46 -10 52
-52 22z"/>
<path d="M1434 2885 c-154 -96 -189 -110 -277 -111 -75 -1 -79 -3 -96 -30 -10
-16 -30 -40 -44 -53 -25 -22 -25 -25 -9 -37 27 -21 37 -17 65 23 31 43 34 39
10 -12 -19 -40 -18 -42 21 -47 26 -3 32 2 53 42 20 38 23 40 18 15 -3 -16 -8
-38 -11 -48 -5 -16 -1 -17 33 -11 48 8 49 10 61 64 l10 45 1 -42 c1 -48 5 -50
57 -26 35 17 36 19 31 63 l-6 45 17 -37 17 -38 34 21 c34 21 36 32 16 94 -4
11 3 4 16 -15 12 -19 24 -37 26 -39 6 -9 43 33 43 48 0 9 -7 28 -16 41 -12 19
-8 17 14 -7 l30 -31 23 24 c20 21 21 27 10 51 -12 27 -12 27 7 10 20 -19 52
-14 52 8 0 20 -46 45 -83 45 -24 0 -61 -17 -123 -55z"/>
<path d="M966 2853 c-19 -27 -56 -86 -82 -133 -56 -100 -104 -170 -116 -170
-5 0 -16 7 -24 15 -17 16 -79 21 -88 6 -3 -5 4 -12 17 -16 21 -7 21 -7 2 -12
-27 -7 -55 -33 -55 -52 0 -12 3 -12 12 -3 7 7 25 12 42 12 28 0 28 -1 13 -18
-10 -10 -17 -26 -17 -35 0 -16 3 -16 39 2 21 11 41 27 44 35 14 35 85 29 170
-15 12 -7 17 -5 17 4 0 18 -32 47 -51 47 -9 0 -24 6 -34 14 -18 13 -18 14 2
52 13 27 43 55 93 89 82 56 110 97 110 163 0 36 -4 44 -26 52 -14 6 -27 10
-30 10 -2 0 -19 -21 -38 -47z"/>
<path d="M1590 2820 c-53 -54 -57 -65 -39 -114 9 -26 7 -39 -15 -88 -34 -72
-50 -86 -74 -64 -18 16 -73 22 -85 9 -4 -3 1 -12 11 -19 15 -12 15 -13 1 -14
-19 0 -49 -31 -49 -50 0 -11 3 -11 12 -2 7 7 25 12 40 12 l29 0 -22 -30 c-13
-16 -20 -32 -17 -36 9 -8 85 33 91 49 9 23 64 29 105 10 20 -9 41 -15 46 -14
4 1 14 -4 22 -10 8 -6 14 -7 14 -2 0 20 -27 43 -65 55 -52 17 -54 37 -13 96
19 26 39 59 46 74 7 17 29 36 57 49 25 12 48 25 51 30 6 11 -67 108 -83 108
-7 1 -35 -22 -63 -49z"/>
<path d="M965 2333 c-217 -18 -471 -102 -615 -204 -48 -33 -47 -33 45 5 174
72 371 107 605 107 214 0 363 -23 606 -91 166 -46 298 -63 459 -58 159 6 252
30 350 92 55 36 85 67 49 51 -203 -87 -458 -84 -821 11 -313 82 -481 104 -678
87z"/>
<path d="M609 1971 c-35 -35 -39 -44 -39 -91 0 -66 22 -105 75 -130 47 -23 69
-25 113 -9 28 10 35 7 100 -42 68 -50 69 -52 51 -70 -18 -18 -19 -39 -19 -303
l0 -284 -52 -36 c-83 -56 -95 -54 -144 32 -51 89 -86 194 -94 281 l-5 66 -14
-40 c-18 -50 -18 -163 -1 -235 7 -30 30 -92 51 -138 31 -67 35 -84 24 -89 -21
-7 -19 -23 10 -66 22 -31 28 -35 43 -26 16 10 31 1 100 -55 45 -36 105 -77
133 -92 47 -23 159 -53 202 -54 27 0 20 17 -10 25 -54 13 -167 89 -241 161
-62 62 -73 76 -67 96 9 28 -4 16 88 81 57 41 92 59 135 68 67 14 165 6 248
-19 l59 -18 2 -129 c4 -174 5 -177 51 -173 l37 3 5 150 5 149 60 18 c81 25
192 34 249 19 56 -14 256 -156 256 -182 0 -33 -105 -105 -203 -138 l-57 -20 0
35 0 35 -48 -32 c-26 -18 -72 -51 -102 -73 l-55 -41 40 -7 c22 -3 85 -10 140
-14 100 -7 100 -7 82 13 -17 20 -17 21 10 28 46 11 150 64 196 99 24 18 67 41
95 50 l52 18 0 49 c0 29 8 65 19 87 30 59 50 149 53 239 2 46 5 83 8 83 3 -1
16 -7 30 -15 14 -8 29 -14 33 -15 10 0 -33 79 -100 183 -39 60 -47 69 -53 52
-14 -38 -52 -226 -47 -231 3 -3 14 -1 25 5 15 8 21 7 25 -3 9 -24 -13 -174
-33 -230 -33 -87 -38 -88 -128 -20 l-77 60 -3 288 c-1 178 -6 294 -13 302 -7
9 33 45 156 139 104 81 165 135 165 146 0 21 -26 49 -44 49 -8 0 -85 -54 -172
-121 -157 -120 -158 -120 -198 -112 -23 4 -88 8 -146 8 -92 -1 -112 -4 -162
-27 l-58 -27 0 44 0 44 55 11 c68 14 85 30 85 80 0 49 -17 66 -84 80 -39 8
-55 16 -59 30 -7 27 -61 27 -80 0 -7 -11 -35 -24 -62 -30 -66 -15 -75 -24 -75
-80 0 -56 9 -66 78 -81 l52 -11 0 -43 0 -44 -57 26 c-68 31 -189 42 -273 24
l-52 -11 -68 50 c-67 49 -68 51 -63 89 7 49 -20 107 -61 132 -20 12 -50 19
-85 19 -49 0 -57 -3 -92 -39z m148 -43 c30 -28 30 -74 1 -105 -29 -31 -72 -30
-103 2 -70 69 30 170 102 103z m489 -233 c27 -8 75 -30 107 -49 l59 -36 32 25
c84 64 232 92 345 65 l51 -12 0 -295 0 -295 -22 5 c-96 24 -247 10 -358 -32
l-50 -19 -77 24 c-110 36 -222 49 -291 35 -30 -6 -59 -11 -64 -11 -4 0 -8 132
-8 294 l0 295 43 9 c65 15 178 14 233 -3z"/>
<path d="M1023 1614 c-9 -4 -13 -30 -13 -79 l0 -74 63 6 c58 5 90 0 206 -33
17 -5 22 -3 19 6 -5 17 -68 39 -135 47 -43 5 -53 9 -53 24 0 25 39 25 122 -1
75 -23 68 -22 68 -9 0 15 -64 39 -128 47 -49 6 -57 10 -60 30 -5 31 13 30 166
-14 39 -11 24 13 -20 31 -43 17 -210 31 -235 19z"/>
<path d="M1530 1604 c-58 -16 -110 -51 -60 -41 14 2 54 12 90 22 46 12 84 16
127 12 59 -6 83 3 47 17 -28 11 -148 5 -204 -10z"/>
<path d="M1512 1531 c-55 -19 -69 -27 -60 -37 3 -3 38 5 77 16 54 17 90 21
146 18 56 -2 75 0 75 9 0 21 -173 16 -238 -6z"/>
<path d="M1525 1474 c-56 -17 -100 -51 -55 -41 14 2 54 12 90 22 46 12 84 16
127 12 59 -6 83 3 47 17 -29 11 -159 5 -209 -10z"/>
<path d="M1017 1413 c-17 -16 -3 -20 56 -16 57 5 92 -1 206 -33 18 -5 23 -4
19 7 -8 23 -107 48 -194 48 -44 1 -84 -2 -87 -6z"/>
<path d="M1525 1404 c-55 -17 -101 -51 -55 -41 14 3 52 13 85 22 41 12 82 16
128 12 47 -3 67 -1 64 7 -6 18 -164 17 -222 0z"/>
<path d="M1028 1353 c-42 -11 -11 -20 70 -20 64 0 101 -6 142 -22 32 -12 58
-17 63 -12 31 31 -194 75 -275 54z"/>
<path d="M1542 1344 c-65 -17 -94 -32 -87 -44 3 -5 31 0 63 12 40 14 83 20
145 21 85 0 110 8 65 21 -39 10 -130 5 -186 -10z"/>
<path d="M1017 1283 c-17 -16 -2 -20 61 -16 62 5 93 0 201 -33 18 -5 23 -4 19
7 -8 23 -107 48 -194 48 -44 1 -84 -2 -87 -6z"/>
<path d="M1526 1275 c-53 -15 -104 -53 -56 -42 14 3 50 13 80 22 37 11 79 15
128 12 50 -3 72 -1 69 7 -5 16 -163 17 -221 1z"/>
<path d="M1033 1224 c-50 -11 -18 -24 60 -24 74 0 131 -11 190 -35 11 -5 17
-3 17 7 0 31 -193 68 -267 52z"/>
<path d="M1547 1214 c-69 -16 -102 -33 -91 -44 5 -5 34 0 64 10 37 13 83 19
143 20 87 0 115 12 56 24 -47 9 -108 6 -172 -10z"/>
<path d="M11 1284 c0 -11 3 -14 6 -6 3 7 2 16 -1 19 -3 4 -6 -2 -5 -13z"/>
<path d="M2781 1284 c0 -11 3 -14 6 -6 3 7 2 16 -1 19 -3 4 -6 -2 -5 -13z"/>
<path d="M21 1234 c0 -11 3 -14 6 -6 3 7 2 16 -1 19 -3 4 -6 -2 -5 -13z"/>
<path d="M2771 1234 c0 -11 3 -14 6 -6 3 7 2 16 -1 19 -3 4 -6 -2 -5 -13z"/>
<path d="M30 1201 c0 -30 64 -200 107 -284 122 -235 295 -420 562 -598 193
-128 476 -263 655 -311 53 -14 82 -8 235 48 250 93 551 269 736 431 195 171
349 400 419 621 27 87 35 135 11 69 -99 -269 -353 -516 -760 -740 -222 -122
-567 -264 -614 -252 -55 14 -312 120 -436 181 -316 154 -565 332 -720 516 -83
98 -113 146 -161 256 -19 42 -34 71 -34 63z"/>
</g>
</svg>
