<?xml version="1.0" standalone="no"?>
<!DOCTYPE svg PUBLIC "-//W3C//DTD SVG 20010904//EN"
 "http://www.w3.org/TR/2001/REC-SVG-20010904/DTD/svg10.dtd">
<svg version="1.0" xmlns="http://www.w3.org/2000/svg"
 width="225.000000pt" height="225.000000pt" viewBox="0 0 225.000000 225.000000" fill="#FFFFFD"
 preserveAspectRatio="xMidYMid meet">

<g transform="translate(0.000000,225.000000) scale(0.100000,-0.100000)"
fill="#FFFFF" stroke="none">
<path d="M895 2150 c-230 -49 -421 -154 -580 -321 -325 -342 -379 -838 -134
-1239 60 -98 220 -264 314 -325 135 -88 295 -151 447 -175 124 -20 361 -8 478
24 379 105 668 393 767 765 23 83 26 116 26 246 0 129 -4 164 -27 249 -106
403 -443 707 -865 781 -117 21 -314 18 -426 -5z m434 -81 c153 -39 294 -122
402 -236 363 -385 254 -992 -222 -1238 -138 -71 -218 -90 -389 -89 -168 0
-226 12 -365 78 -252 119 -421 352 -456 629 -29 232 65 486 242 652 212 199
507 276 788 204z"/>
<path d="M1033 2049 c-255 -25 -475 -174 -583 -394 -53 -106 -70 -179 -70
-295 0 -116 17 -188 72 -300 33 -69 57 -101 127 -170 99 -98 166 -140 288
-183 76 -26 106 -31 218 -35 110 -4 144 -1 215 17 212 52 395 193 485 371 75
148 91 342 42 495 -63 192 -182 327 -372 420 -135 66 -269 90 -422 74z m209
-60 c155 -32 309 -151 378 -293 73 -149 73 -294 0 -441 -96 -194 -280 -305
-505 -305 -314 0 -558 229 -558 525 0 235 159 437 398 506 70 20 209 24 287 8z"/>
<path d="M1023 1955 c-132 -29 -236 -113 -300 -242 -37 -75 -38 -79 -38 -187
0 -128 18 -186 83 -271 160 -211 473 -233 659 -47 179 180 176 466 -9 637 -66
62 -138 99 -222 114 -73 14 -94 13 -173 -4z m162 -54 c148 -68 182 -264 65
-378 -122 -119 -327 -51 -359 120 -19 106 26 201 118 249 63 33 118 36 176 9z"/>
</g>
</svg>
