<svg id="eDb63AlG40v1" xmlns="http://www.w3.org/2000/svg" xmlns:xlink="http://www.w3.org/1999/xlink" viewBox="0 0 16 16" shape-rendering="geometricPrecision" text-rendering="geometricPrecision"><path d="M6.95,0.435c.58-.58,1.52-.58,2.1,0l6.515,6.516c.58.58.58,1.519,0,2.098L9.05,15.565c-.58.58-1.519.58-2.098,0L0.435,9.05c-.278583-.278015-.435137-.655426-.435137-1.049s.156554-.770985.435137-1.049L6.95,0.435Zm1.4.7c-.193305-.193286-.506695-.193286-.7,0L1.134,7.65c-.193286.193305-.193286.506695,0,.7L7.65,14.866c.193305.193286.506695.193286.7,0L14.866,8.35c.193286-.193305.193286-.506695,0-.7L8.35,1.134Z" fill="#ff0"/><rect width="6.30872" height="9.046151" rx="0" ry="0" transform="matrix(1.212074 1.212074-.867716 0.867716 8.101358 0.251935)" fill="#ff0" stroke-width="0"/></svg>